<svg width="57" height="36" viewBox="0 0 57 36" fill="none" xmlns="http://www.w3.org/2000/svg">
<path d="M11.8869 35.0322C9.61494 35.0322 7.51894 34.6162 5.59894 33.7842C3.71094 32.9202 2.15894 31.7042 0.942937 30.1362L5.26294 24.9522C6.19094 26.1682 7.16694 27.0962 8.19094 27.7362C9.21494 28.3442 10.3189 28.6482 11.5029 28.6482C14.6709 28.6482 16.2549 26.7922 16.2549 23.0802V7.09617H4.44694V0.856174H23.9829V22.6482C23.9829 26.8082 22.9589 29.9122 20.9109 31.9602C18.8629 34.0082 15.8549 35.0322 11.8869 35.0322ZM42.7037 35.0322C40.0157 35.0322 37.4397 34.6802 34.9757 33.9762C32.5117 33.2402 30.5277 32.2962 29.0237 31.1442L31.6637 25.2882C33.1037 26.3122 34.7997 27.1602 36.7517 27.8322C38.7357 28.4722 40.7357 28.7922 42.7517 28.7922C44.2877 28.7922 45.5197 28.6482 46.4477 28.3602C47.4077 28.0402 48.1117 27.6082 48.5597 27.0642C49.0077 26.5202 49.2317 25.8962 49.2317 25.1922C49.2317 24.2962 48.8797 23.5922 48.1757 23.0802C47.4717 22.5362 46.5437 22.1042 45.3917 21.7842C44.2397 21.4322 42.9597 21.1122 41.5517 20.8242C40.1757 20.5042 38.7837 20.1202 37.3757 19.6722C35.9997 19.2242 34.7357 18.6482 33.5837 17.9442C32.4317 17.2402 31.4877 16.3122 30.7517 15.1602C30.0477 14.0082 29.6957 12.5362 29.6957 10.7442C29.6957 8.82418 30.2077 7.08018 31.2317 5.51217C32.2877 3.91217 33.8557 2.64817 35.9357 1.72017C38.0477 0.760176 40.6877 0.280176 43.8557 0.280176C45.9677 0.280176 48.0477 0.536176 50.0957 1.04817C52.1437 1.52817 53.9517 2.26417 55.5197 3.25618L53.1197 9.16018C51.5517 8.26418 49.9837 7.60818 48.4157 7.19218C46.8477 6.74418 45.3117 6.52018 43.8077 6.52018C42.3037 6.52018 41.0717 6.69618 40.1117 7.04817C39.1517 7.40018 38.4637 7.86418 38.0477 8.44017C37.6317 8.98417 37.4237 9.62418 37.4237 10.3602C37.4237 11.2242 37.7757 11.9282 38.4797 12.4722C39.1837 12.9842 40.1117 13.4002 41.2637 13.7202C42.4157 14.0402 43.6797 14.3602 45.0557 14.6802C46.4637 15.0002 47.8557 15.3682 49.2317 15.7842C50.6397 16.2002 51.9197 16.7602 53.0717 17.4642C54.2237 18.1682 55.1517 19.0962 55.8557 20.2482C56.5917 21.4002 56.9597 22.8562 56.9597 24.6162C56.9597 26.5042 56.4317 28.2322 55.3757 29.8002C54.3197 31.3682 52.7357 32.6322 50.6237 33.5922C48.5437 34.5522 45.9037 35.0322 42.7037 35.0322Z" fill="white"/>
</svg>
