<svg width="94" height="36" viewBox="0 0 94 36" fill="none" xmlns="http://www.w3.org/2000/svg">
<path d="M18.9468 35.0322C16.3548 35.0322 13.9388 34.6162 11.6988 33.7842C9.49081 32.9202 7.57081 31.7042 5.93881 30.1362C4.30681 28.5682 3.02681 26.7282 2.09881 24.6162C1.20281 22.5042 0.754813 20.1842 0.754813 17.6562C0.754813 15.1282 1.20281 12.8082 2.09881 10.6962C3.02681 8.58417 4.30681 6.74417 5.93881 5.17618C7.60281 3.60818 9.53881 2.40817 11.7468 1.57617C13.9548 0.712175 16.3708 0.280176 18.9948 0.280176C21.9068 0.280176 24.5308 0.792176 26.8668 1.81618C29.2348 2.80818 31.2188 4.28018 32.8188 6.23218L27.8268 10.8402C26.6748 9.52817 25.3948 8.55217 23.9868 7.91218C22.5788 7.24018 21.0428 6.90418 19.3788 6.90418C17.8108 6.90418 16.3708 7.16018 15.0588 7.67218C13.7468 8.18417 12.6108 8.92017 11.6508 9.88018C10.6908 10.8402 9.93881 11.9762 9.39481 13.2882C8.88281 14.6002 8.62681 16.0562 8.62681 17.6562C8.62681 19.2562 8.88281 20.7122 9.39481 22.0242C9.93881 23.3362 10.6908 24.4722 11.6508 25.4322C12.6108 26.3922 13.7468 27.1282 15.0588 27.6402C16.3708 28.1522 17.8108 28.4082 19.3788 28.4082C21.0428 28.4082 22.5788 28.0882 23.9868 27.4482C25.3948 26.7762 26.6748 25.7682 27.8268 24.4242L32.8188 29.0322C31.2188 30.9842 29.2348 32.4722 26.8668 33.4962C24.5308 34.5202 21.8908 35.0322 18.9468 35.0322ZM48.9224 35.0322C46.2344 35.0322 43.6584 34.6802 41.1944 33.9762C38.7304 33.2402 36.7464 32.2962 35.2424 31.1442L37.8824 25.2882C39.3224 26.3122 41.0184 27.1602 42.9704 27.8322C44.9544 28.4722 46.9544 28.7922 48.9704 28.7922C50.5064 28.7922 51.7384 28.6482 52.6664 28.3602C53.6264 28.0402 54.3304 27.6082 54.7784 27.0642C55.2264 26.5202 55.4504 25.8962 55.4504 25.1922C55.4504 24.2962 55.0984 23.5922 54.3944 23.0802C53.6904 22.5362 52.7624 22.1042 51.6104 21.7842C50.4584 21.4322 49.1784 21.1122 47.7704 20.8242C46.3944 20.5042 45.0024 20.1202 43.5944 19.6722C42.2184 19.2242 40.9544 18.6482 39.8024 17.9442C38.6504 17.2402 37.7064 16.3122 36.9704 15.1602C36.2664 14.0082 35.9144 12.5362 35.9144 10.7442C35.9144 8.82418 36.4264 7.08018 37.4504 5.51217C38.5064 3.91217 40.0744 2.64817 42.1544 1.72017C44.2664 0.760176 46.9064 0.280176 50.0744 0.280176C52.1864 0.280176 54.2664 0.536176 56.3144 1.04817C58.3624 1.52817 60.1704 2.26417 61.7384 3.25618L59.3384 9.16018C57.7704 8.26418 56.2024 7.60818 54.6344 7.19218C53.0664 6.74418 51.5304 6.52018 50.0264 6.52018C48.5224 6.52018 47.2904 6.69618 46.3304 7.04817C45.3704 7.40018 44.6824 7.86418 44.2664 8.44017C43.8504 8.98417 43.6424 9.62418 43.6424 10.3602C43.6424 11.2242 43.9944 11.9282 44.6984 12.4722C45.4024 12.9842 46.3304 13.4002 47.4824 13.7202C48.6344 14.0402 49.8984 14.3602 51.2744 14.6802C52.6824 15.0002 54.0744 15.3682 55.4504 15.7842C56.8584 16.2002 58.1384 16.7602 59.2904 17.4642C60.4424 18.1682 61.3704 19.0962 62.0744 20.2482C62.8104 21.4002 63.1784 22.8562 63.1784 24.6162C63.1784 26.5042 62.6504 28.2322 61.5944 29.8002C60.5384 31.3682 58.9544 32.6322 56.8424 33.5922C54.7624 34.5522 52.1224 35.0322 48.9224 35.0322ZM79.5318 35.0322C76.8438 35.0322 74.2678 34.6802 71.8038 33.9762C69.3398 33.2402 67.3558 32.2962 65.8518 31.1442L68.4918 25.2882C69.9318 26.3122 71.6278 27.1602 73.5798 27.8322C75.5638 28.4722 77.5638 28.7922 79.5798 28.7922C81.1158 28.7922 82.3478 28.6482 83.2758 28.3602C84.2358 28.0402 84.9398 27.6082 85.3878 27.0642C85.8358 26.5202 86.0598 25.8962 86.0598 25.1922C86.0598 24.2962 85.7078 23.5922 85.0038 23.0802C84.2998 22.5362 83.3718 22.1042 82.2198 21.7842C81.0678 21.4322 79.7878 21.1122 78.3798 20.8242C77.0038 20.5042 75.6118 20.1202 74.2038 19.6722C72.8278 19.2242 71.5638 18.6482 70.4118 17.9442C69.2598 17.2402 68.3158 16.3122 67.5798 15.1602C66.8758 14.0082 66.5238 12.5362 66.5238 10.7442C66.5238 8.82418 67.0358 7.08018 68.0598 5.51217C69.1158 3.91217 70.6838 2.64817 72.7638 1.72017C74.8758 0.760176 77.5158 0.280176 80.6838 0.280176C82.7958 0.280176 84.8758 0.536176 86.9238 1.04817C88.9718 1.52817 90.7798 2.26417 92.3478 3.25618L89.9478 9.16018C88.3798 8.26418 86.8118 7.60818 85.2438 7.19218C83.6758 6.74418 82.1398 6.52018 80.6358 6.52018C79.1318 6.52018 77.8998 6.69618 76.9398 7.04817C75.9798 7.40018 75.2918 7.86418 74.8758 8.44017C74.4598 8.98417 74.2518 9.62418 74.2518 10.3602C74.2518 11.2242 74.6038 11.9282 75.3078 12.4722C76.0118 12.9842 76.9398 13.4002 78.0918 13.7202C79.2438 14.0402 80.5078 14.3602 81.8838 14.6802C83.2918 15.0002 84.6838 15.3682 86.0598 15.7842C87.4678 16.2002 88.7478 16.7602 89.8998 17.4642C91.0518 18.1682 91.9798 19.0962 92.6838 20.2482C93.4198 21.4002 93.7878 22.8562 93.7878 24.6162C93.7878 26.5042 93.2598 28.2322 92.2038 29.8002C91.1478 31.3682 89.5638 32.6322 87.4518 33.5922C85.3718 34.5522 82.7318 35.0322 79.5318 35.0322Z" fill="white"/>
</svg>
