<svg width="348" height="348" viewBox="0 0 348 348" fill="none" xmlns="http://www.w3.org/2000/svg">
<path d="M174 18.9676C174 8.46789 182.537 -0.151328 192.974 0.993542C225.69 4.58225 256.861 17.3981 282.755 38.1316C313.617 62.8428 335.143 97.3274 343.789 135.907C352.434 174.486 347.684 214.859 330.319 250.378C312.955 285.896 284.012 314.442 248.257 331.315C212.503 348.188 172.068 352.381 133.611 343.204C95.1553 334.027 60.9709 312.027 36.6879 280.827C12.4048 249.627 -0.528917 211.088 0.0165538 171.556C0.474221 138.387 10.398 106.178 28.4268 78.6432C34.1784 69.8589 46.259 68.7487 54.3638 75.4238V75.4238C62.4686 82.0989 63.4959 94.0254 58.0155 102.981C45.3343 123.704 38.3742 147.556 38.0358 172.08C37.6096 202.974 47.717 233.091 66.6936 257.473C85.6703 281.855 112.385 299.048 142.437 306.219C172.49 313.391 204.089 310.114 232.031 296.929C259.972 283.743 282.59 261.435 296.16 233.678C309.73 205.921 313.442 174.37 306.686 144.221C299.93 114.073 283.108 87.1235 258.99 67.8123C239.845 52.4827 217.008 42.6916 192.95 39.3058C182.553 37.8425 174 29.4674 174 18.9676V18.9676Z" fill="#0047FF"/>
</svg>
