<svg width="335" height="348" viewBox="0 0 335 348" fill="none" xmlns="http://www.w3.org/2000/svg">
<path d="M161 18.9676C161 8.46789 169.537 -0.151243 179.974 0.993707C205.412 3.78419 230.003 12.1617 251.951 25.6193C279.321 42.4004 301.513 66.4264 316.074 95.0386C330.635 123.651 336.996 155.734 334.453 187.737C331.911 219.74 320.564 250.416 301.668 276.37C282.772 302.324 257.063 322.545 227.388 334.794C197.712 347.043 165.226 350.843 133.525 345.773C101.824 340.704 72.1428 326.963 47.7668 306.071C28.2186 289.316 12.6932 268.487 2.22492 245.136C-2.07027 235.555 3.51028 224.783 13.5025 221.558V221.558C23.4948 218.333 34.092 223.9 38.6779 233.346C46.7979 250.07 58.2927 265.015 72.5108 277.201C91.5601 293.528 114.755 304.266 139.529 308.227C164.303 312.189 189.69 309.219 212.881 299.647C236.071 290.075 256.162 274.273 270.929 253.99C285.695 233.708 294.563 209.735 296.55 184.726C298.537 159.716 293.566 134.644 282.187 112.284C270.808 89.9241 253.465 71.1483 232.077 58.0342C216.113 48.2461 198.36 41.8969 179.95 39.3059C169.553 37.8426 161 29.4674 161 18.9676V18.9676Z" fill="#DBFF00"/>
</svg>
