<svg width="348" height="348" viewBox="0 0 348 348" fill="none" xmlns="http://www.w3.org/2000/svg">
<path d="M174 18.9676C174 8.46789 182.538 -0.151376 192.975 0.993414C229.82 5.0347 264.598 20.7684 292.068 46.1437C324.215 75.8397 343.991 116.559 347.454 160.186C350.918 203.812 337.814 247.142 310.755 281.538C283.697 315.935 244.67 338.871 201.454 345.777C158.239 352.682 114.008 343.049 77.578 318.797C41.1482 294.545 15.1949 257.456 4.89123 214.922C-5.41245 172.389 0.690209 127.534 21.9828 89.2993C40.1774 56.6276 68.3214 30.8397 102.072 15.5183C111.633 11.1782 122.431 16.7078 125.703 26.6847V26.6847C128.975 36.6617 123.458 47.2849 114.034 51.9152C89.3275 64.0548 68.7403 83.4882 55.202 107.799C38.5623 137.678 33.7932 172.731 41.8453 205.97C49.8974 239.209 70.1793 268.194 98.6484 287.146C127.117 306.098 161.683 313.626 195.455 308.23C229.227 302.834 259.726 284.909 280.871 258.029C302.017 231.149 312.257 197.288 309.551 163.195C306.844 129.102 291.389 97.2804 266.267 74.0736C245.828 55.1923 220.21 43.1418 192.95 39.3056C182.553 37.8424 174 29.4674 174 18.9676V18.9676Z" fill="#FFC700"/>
</svg>
