<svg width="140" height="35" viewBox="0 0 140 35" fill="none" xmlns="http://www.w3.org/2000/svg">
<path d="M23.399 0.856174H31.175V34.4562H23.399V0.856174ZM8.135 34.4562H0.359V0.856174H8.135V34.4562ZM23.975 20.6802H7.559V14.1042H23.975V20.6802ZM46.0846 34.4562V7.19218H35.3326V0.856174H64.6126V7.19218H53.8606V34.4562H46.0846ZM68.7965 34.4562V0.856174H75.2285L89.5325 24.5682H86.1245L100.189 0.856174H106.573L106.669 34.4562H99.3725L99.3245 12.0402H100.669L89.4365 30.9042H85.9325L74.4605 12.0402H76.0925V34.4562H68.7965ZM114.64 34.4562V0.856174H122.416V28.1202H139.264V34.4562H114.64Z" fill="white"/>
</svg>
